<svg xmlns="http://www.w3.org/2000/svg" viewBox="0 0 500 150">
  <g transform="translate(20, 20)">
    <!-- Placeholder UBI Logo icon -->
    <path d="M 40,0 A 20,20 0 0 0 20,20 L 20,80 A 40,40 0 0 0 100,80 L 100,50 L 80,50 L 80,80 A 20,20 0 0 1 40,80 L 40,20 Z" fill="#E31837" />
    <path d="M 60,110 A 20,20 0 0 0 80,90 L 80,30 A 40,40 0 0 0 0,30 L 0,60 L 20,60 L 20,30 A 20,20 0 0 1 60,30 L 60,90 Z" fill="#005A9C" />
    <!-- Text -->
    <text x="140" y="70" font-family="Arial, sans-serif" font-weight="bold" font-size="52" fill="#E31837">Union Bank</text>
    <text x="290" y="105" font-family="Arial, sans-serif" font-style="italic" font-size="28" fill="#E31837">of India</text>
  </g>
</svg>
